<svg xmlns="http://www.w3.org/2000/svg" viewBox="0 0 819.92 157.14" xmlns:xlink="http://www.w3.org/1999/xlink">
 <defs>
  <style>
   .cls-1{fill:#0062e3;}
  </style>
 </defs>
 <g id="Layer_2" data-name="Layer 2">
  <g id="Layer_1-2" data-name="Layer 1">
   <path class="cls-1" d="M305.67,35.07H290.39a2.15,2.15,0,0,0-2.14,2.15V68.63q-9.35-11.17-25.9-11.17a36.48,36.48,0,0,0-19,4.79A32.5,32.5,0,0,0,230.94,75.4a40.73,40.73,0,0,0-4.34,19.12,39.5,39.5,0,0,0,4.34,19,30.61,30.61,0,0,0,12,12.42,34.71,34.71,0,0,0,17.48,4.34,39.26,39.26,0,0,0,16.36-3.3,29.16,29.16,0,0,0,11.9-9.59V126a2.15,2.15,0,0,0,2.15,2.15h14.88a2.15,2.15,0,0,0,2.15-2.15V37.22a2.15,2.15,0,0,0-2.15-2.15m-17.3,60.77a19,19,0,0,1-1.37,7.09,18.15,18.15,0,0,1-4,6,20.43,20.43,0,0,1-7.09,4.6,24.09,24.09,0,0,1-8.68,1.57c-6.4,0-11.38-1.83-15-5.52s-5.39-8.85-5.39-15.51q0-10.64,5.39-16.09c3.6-3.63,8.81-5.47,15.64-5.47,6.48,0,11.47,1.86,15,5.53a19.79,19.79,0,0,1,4.06,6.44,20.9,20.9,0,0,1,1.45,7.76Zm100-29.12q-10.05-9.26-28.45-9.26-12.11,0-21.09,4.79A33.76,33.76,0,0,0,325,75.53a38.37,38.37,0,0,0-4.79,19.25q0,16.83,10.32,26.15t29,9.34q16.42,0,25.82-5.78A26.41,26.41,0,0,0,397,108.8a1.61,1.61,0,0,0-1.54-2.06h-15.2a1.55,1.55,0,0,0-1.39.91q-4.05,8.41-18.66,8.42a26,26,0,0,1-11.1-2.23,18.18,18.18,0,0,1-7.5-6.18,16.5,16.5,0,0,1-2.82-9.06h56.92a2.75,2.75,0,0,0,2.75-2.74V92.68q0-16.7-10.06-26M339.26,86.64a15.22,15.22,0,0,1,6.38-10.92,22.27,22.27,0,0,1,13.87-4.33q9.58,0,15,4a13.86,13.86,0,0,1,5.64,11.24Zm212-28.26h.52a2.47,2.47,0,0,1,2.43,2.46V72.16a2.48,2.48,0,0,1-2.62,2.48c-.87-.06-1.72-.1-2.56-.1q-9.85,0-16.3,5.52c-3.93,3.5-5.9,7.54-5.9,12.09V126a2.16,2.16,0,0,1-2.16,2.15H509.38a2.15,2.15,0,0,1-2.16-2.15V61.71a2.16,2.16,0,0,1,2.16-2.15h14.87a2.15,2.15,0,0,1,2.15,2.15v9q10.13-12.36,24.84-12.35m76.93,8.16q-10-9.26-28.45-9.26-12.11,0-21.09,4.79a33.61,33.61,0,0,0-13.8,13.28A38.39,38.39,0,0,0,560,94.61q0,16.81,10.32,26.15t29,9.33q16.42,0,25.82-5.78a26.38,26.38,0,0,0,11.62-15.69,1.61,1.61,0,0,0-1.54-2.06H620a1.57,1.57,0,0,0-1.39.91q-4,8.41-18.65,8.42a26,26,0,0,1-11.11-2.23,18.1,18.1,0,0,1-7.5-6.18,16.49,16.49,0,0,1-2.81-9.06h56.92a2.74,2.74,0,0,0,2.74-2.74V92.5q0-16.69-10.06-26M579.09,86.46a15.16,15.16,0,0,1,6.37-10.91,22.22,22.22,0,0,1,13.87-4.34c6.4,0,11.38,1.33,15,4A13.87,13.87,0,0,1,620,86.46ZM717.51,66.54q-10.05-9.26-28.45-9.26-12.1,0-21.1,4.79a33.73,33.73,0,0,0-13.8,13.28,38.39,38.39,0,0,0-4.79,19.26q0,16.81,10.32,26.15t29,9.33q16.41,0,25.82-5.78a26.41,26.41,0,0,0,11.62-15.69,1.62,1.62,0,0,0-1.54-2.06h-15.2a1.54,1.54,0,0,0-1.39.91q-4.05,8.41-18.66,8.42a26,26,0,0,1-11.1-2.23,18,18,0,0,1-7.5-6.18,16.42,16.42,0,0,1-2.83-9.06h56.93a2.75,2.75,0,0,0,2.75-2.74V92.5q0-16.69-10.06-26M668.42,86.46a15.2,15.2,0,0,1,6.38-10.91,22.22,22.22,0,0,1,13.87-4.34q9.57,0,15,4a13.86,13.86,0,0,1,5.64,11.24ZM817.77,34.89H802.49A2.16,2.16,0,0,0,800.33,37V68.46Q791,57.27,774.44,57.28a36.66,36.66,0,0,0-19,4.79A32.37,32.37,0,0,0,743,75.22a40.73,40.73,0,0,0-4.34,19.12,39.5,39.5,0,0,0,4.34,19,30.52,30.52,0,0,0,12,12.42,34.74,34.74,0,0,0,17.48,4.34,39.54,39.54,0,0,0,16.36-3.28,29.42,29.42,0,0,0,11.9-9.6v8.62a2.15,2.15,0,0,0,2.15,2.15h14.89a2.15,2.15,0,0,0,2.15-2.15V37a2.16,2.16,0,0,0-2.15-2.15m-17.3,60.77a19,19,0,0,1-1.38,7.09,18.27,18.27,0,0,1-4,6,20.38,20.38,0,0,1-7.1,4.6A23.88,23.88,0,0,1,779.3,115q-9.59,0-15-5.52t-5.39-15.51q0-10.64,5.39-16.09T780,72.4q9.72,0,15,5.51A19.82,19.82,0,0,1,799,84.35a21.1,21.1,0,0,1,1.45,7.76Zm-312-36.1H473.6a2.15,2.15,0,0,0-2.15,2.15v7.05a28.42,28.42,0,0,0-10.91-8.54A42.49,42.49,0,0,0,426.38,62a31.56,31.56,0,0,0-12.56,12.43,35.76,35.76,0,0,0-4.4,17.73,36.12,36.12,0,0,0,3.82,16.92c.18.37.38.73.58,1.09a30.17,30.17,0,0,0,12,11.89,32.6,32.6,0,0,0,7.64,3,38.89,38.89,0,0,0,9.7,1.16A45.58,45.58,0,0,0,453.71,125a35.28,35.28,0,0,0,5.65-1.86,29.43,29.43,0,0,0,11.7-8.81v10.45a1.62,1.62,0,0,1,0,.22,16.72,16.72,0,0,1-2.88,9,18.4,18.4,0,0,1-7.65,6.3,23.16,23.16,0,0,1-6.56,1.92,30.58,30.58,0,0,1-4.77.35q-14.91,0-19-8.58a1.62,1.62,0,0,0-1.08-.89,1.32,1.32,0,0,0-.34,0H413.21a1.64,1.64,0,0,0-1.57,2.09,26.84,26.84,0,0,0,11.87,16q9.57,5.89,26.35,5.9c8.31,0,15.42-1.37,21.28-4.09.3-.13.59-.26.89-.41a31.74,31.74,0,0,0,8-5.27q9.19-8.33,10.19-22.56a70.35,70.35,0,0,0,.39-7.68V61.71a2.15,2.15,0,0,0-2.15-2.15M429.93,88a17,17,0,0,1,5.24-10.34q5.54-5.07,15.52-5.08c6.56,0,11.52,1.68,14.84,5A18.31,18.31,0,0,1,471,88.29a19.4,19.4,0,0,1,.16,2.55V93a16.66,16.66,0,0,1-3.95,11.26,15.73,15.73,0,0,1-1.56,1.61,19,19,0,0,1-6.9,4.08,26.44,26.44,0,0,1-8.74,1.44q-9.58,0-15-5.19a15.87,15.87,0,0,1-1.6-1.79c-2.54-3.25-3.79-7.41-3.79-12.47a27,27,0,0,1,.27-3.91M188.47,61.72,129.6,29.3l-2-1.09,0,0a13.63,13.63,0,0,0-10.54,0l0,0-2.37,1.32-9.15,5.09a.26.26,0,0,0,0,.43l3.76,2,22.23,12.22,13.18,7.17s-19.43.89-37.42,11.18a21.48,21.48,0,0,1-10.89,2.9h-.74a21.44,21.44,0,0,1-10.88-2.9c-18-10.29-37.42-11.18-37.42-11.18L96,29.66,113.22,20c1.77-1,8-4.9,15.18-2.85,3,.88,8.47,3.83,12.67,6.26a8.26,8.26,0,0,0,8.48-14.18c-5.63-3.46-13.27-7.51-19.63-8.6-16.06-2.75-26.4,5.15-34,9.17-6-4.74-18-11.92-34-9.17-6.36,1.09-14,5.14-19.63,8.6a8.26,8.26,0,0,0,8.48,14.18C54.92,21,60.34,18,63.39,17.13,71.75,14.74,79,20.28,79,20.28L3.1,61.72A6,6,0,0,0,0,67v10.4a6,6,0,0,0,3.11,5.24C5,83.66,5.65,84.21,5.65,88c0,6.57-4.44,42.66,42.61,42.66,42.23,0,37-41.35,47.63-41.14,10.66-.21,5.4,41.14,47.64,41.14,47.05,0,42.6-36.09,42.6-42.66,0-3.79.4-4.34,2.33-5.41a6,6,0,0,0,3.11-5.24V67a6,6,0,0,0-3.1-5.23M70.13,105.56c-4.69,9.65-12.7,11.19-24.28,10.71-8.8-.37-16.82-3.19-21-7.83-6-6.69-5.25-26.95-2.91-31.47,4.43-8.58,45.32-6,50.78,5,.53,1.07,4.16,9.68-2.62,23.64m96.62,2.88c-4.14,4.64-12.16,7.46-21,7.83-11.57.48-19.6-1.06-24.29-10.71-6.77-14-3.13-22.57-2.6-23.64,5.45-10.94,46.35-13.53,50.77-5,2.34,4.52,3.06,24.78-2.91,31.47">
   </path>
  </g>
 </g>
</svg>